<svg xmlns="http://www.w3.org/2000/svg" xmlns:xlink="http://www.w3.org/1999/xlink" width="500" zoomAndPan="magnify" viewBox="0 0 375 374.999991" height="500" preserveAspectRatio="xMidYMid meet" version="1.0"><defs><clipPath id="5d4fd706c5"><path d="M 64.6875 37.5 L 310.6875 37.5 L 310.6875 337.5 L 64.6875 337.5 Z M 64.6875 37.5 " clip-rule="nonzero"/></clipPath></defs><g clip-path="url(#5d4fd706c5)"><path fill="#ffffff" d="M 303.773438 337.5 L 255.972656 337.5 C 252.195312 337.5 249.144531 334.445312 249.144531 330.683594 L 249.144531 207.953125 L 126.230469 207.953125 L 126.230469 330.683594 C 126.230469 334.445312 123.179688 337.5 119.402344 337.5 L 71.601562 337.5 C 67.824219 337.5 64.773438 334.445312 64.773438 330.683594 L 64.773438 44.316406 C 64.773438 40.554688 67.824219 37.5 71.601562 37.5 L 119.402344 37.5 C 123.179688 37.5 126.230469 40.554688 126.230469 44.316406 L 126.230469 153.410156 L 249.144531 153.410156 L 249.144531 44.316406 C 249.144531 40.554688 252.195312 37.5 255.972656 37.5 L 303.773438 37.5 C 307.550781 37.5 310.601562 40.554688 310.601562 44.316406 L 310.601562 330.683594 C 310.601562 334.445312 307.550781 337.5 303.773438 337.5 Z M 303.773438 337.5 " fill-opacity="1" fill-rule="nonzero"/></g></svg>