<svg xmlns="http://www.w3.org/2000/svg" xmlns:xlink="http://www.w3.org/1999/xlink" width="500" zoomAndPan="magnify" viewBox="0 0 375 374.999991" height="500" preserveAspectRatio="xMidYMid meet" version="1.0"><defs><clipPath id="ed42a909ac"><path d="M 118 54.738281 L 286 54.738281 L 286 281 L 118 281 Z M 118 54.738281 " clip-rule="nonzero"/></clipPath><clipPath id="9c8a324099"><path d="M 168 100 L 312.988281 100 L 312.988281 276 L 168 276 Z M 168 100 " clip-rule="nonzero"/></clipPath><clipPath id="9abb3965f3"><path d="M 186 100 L 312.988281 100 L 312.988281 168 L 186 168 Z M 186 100 " clip-rule="nonzero"/></clipPath><clipPath id="ef99235d9f"><path d="M 116 287 L 131 287 L 131 320.238281 L 116 320.238281 Z M 116 287 " clip-rule="nonzero"/></clipPath></defs><rect x="-37.5" width="450" fill="#ffffff" y="-37.499999" height="449.999989" fill-opacity="1"/><rect x="-37.5" width="450" fill="#ffffff" y="-37.499999" height="449.999989" fill-opacity="1"/><rect x="-37.5" width="450" fill="#ededed" y="-37.499999" height="449.999989" fill-opacity="1"/><g clip-path="url(#ed42a909ac)"><path fill="#a7ddea" d="M 260.273438 54.738281 L 285.296875 71.917969 L 142.414062 280.230469 L 118.054688 262.050781 Z M 260.273438 54.738281 " fill-opacity="1" fill-rule="nonzero"/></g><path fill="#281c22" d="M 151.214844 267.371094 L 150.882812 267.816406 C 146.234375 264.710938 141.636719 261.554688 137.042969 258.339844 C 136.765625 258.117188 137.042969 257.675781 137.375 257.894531 C 141.96875 261.109375 146.566406 264.269531 151.214844 267.371094 Z M 158.300781 245.09375 C 158.023438 244.875 157.691406 245.371094 157.96875 245.539062 C 159.796875 246.867188 161.679688 248.144531 163.503906 249.363281 L 163.835938 248.917969 C 162.011719 247.699219 160.128906 246.425781 158.300781 245.09375 Z M 161.402344 220.546875 C 161.070312 220.324219 160.792969 220.824219 161.070312 220.988281 C 166.160156 224.257812 171.253906 227.472656 176.347656 230.742188 L 176.679688 230.296875 C 171.585938 227.027344 166.496094 223.757812 161.402344 220.546875 Z M 236.027344 111.597656 C 235.75 111.375 235.417969 111.875 235.695312 112.039062 C 240.621094 115.53125 245.65625 118.96875 250.695312 122.292969 L 251.027344 121.847656 C 245.992188 118.523438 241.007812 115.089844 236.027344 111.597656 Z M 257.285156 99.074219 C 257.007812 98.851562 256.675781 99.351562 256.953125 99.515625 C 259.054688 101.011719 261.160156 102.453125 263.316406 103.894531 L 263.648438 103.449219 C 261.546875 102.011719 259.386719 100.511719 257.285156 99.074219 Z M 259.996094 74.191406 C 259.664062 73.96875 259.386719 74.46875 259.664062 74.632812 C 265.144531 78.125 270.625 81.671875 276.160156 85.164062 L 276.492188 84.71875 C 271.011719 81.230469 265.53125 77.683594 259.996094 74.191406 Z M 265.199219 90.648438 C 264.921875 90.429688 264.589844 90.925781 264.867188 91.09375 C 266.527344 92.257812 268.191406 93.308594 269.851562 94.363281 L 270.183594 93.917969 C 268.464844 92.867188 266.804688 91.757812 265.199219 90.648438 Z M 252.46875 110.046875 C 253.960938 111.097656 255.457031 112.207031 256.953125 113.257812 L 257.285156 112.816406 C 255.789062 111.761719 254.292969 110.65625 252.800781 109.601562 C 252.523438 109.324219 252.191406 109.824219 252.46875 110.046875 Z M 166.382812 236.503906 C 166.050781 236.285156 165.773438 236.78125 166.050781 236.949219 C 167.433594 237.835938 168.765625 238.777344 170.148438 239.664062 L 170.480469 239.222656 C 169.152344 238.335938 167.765625 237.449219 166.382812 236.503906 Z M 153.097656 255.789062 C 152.765625 255.625 152.488281 256.066406 152.765625 256.234375 C 154.203125 257.066406 155.644531 257.953125 157.082031 258.78125 L 157.414062 258.339844 C 155.976562 257.507812 154.535156 256.621094 153.097656 255.789062 Z M 153.097656 255.789062 " fill-opacity="1" fill-rule="nonzero"/><path fill="#f2da66" d="M 218.199219 124.953125 C 218.089844 124.839844 217.921875 124.675781 217.8125 124.5625 C 213.050781 120.019531 207.738281 116.195312 202.089844 113.148438 C 201.925781 113.039062 201.757812 112.980469 201.59375 112.871094 C 196.277344 110.046875 190.632812 107.882812 184.816406 106.441406 C 184.652344 106.386719 184.429688 106.332031 184.265625 106.332031 C 177.898438 104.78125 171.308594 104.117188 164.667969 104.335938 C 164.5 104.335938 164.28125 104.335938 164.113281 104.335938 C 157.914062 104.558594 151.714844 105.613281 145.625 107.496094 C 145.457031 107.550781 145.292969 107.605469 145.070312 107.664062 C 139.867188 109.269531 134.71875 111.542969 129.789062 114.421875 C 129.625 114.535156 129.457031 114.589844 129.292969 114.699219 C 124.421875 117.636719 119.992188 121.019531 116.0625 124.785156 C 115.894531 124.898438 115.785156 125.0625 115.675781 125.175781 C 111.132812 129.605469 107.257812 134.539062 104.046875 139.804688 C 103.9375 139.96875 103.828125 140.136719 103.773438 140.300781 C 100.394531 146.011719 97.792969 152.105469 96.078125 158.421875 C 96.023438 158.589844 95.964844 158.8125 95.910156 158.976562 C 94.359375 164.796875 93.53125 170.78125 93.417969 176.820312 C 93.417969 176.988281 93.417969 177.210938 93.417969 177.375 C 93.363281 183.859375 94.140625 190.453125 95.855469 196.882812 C 95.910156 197.050781 95.964844 197.269531 96.023438 197.4375 C 97.460938 202.644531 99.453125 207.800781 102.109375 212.789062 C 102.996094 214.449219 105.101562 215.058594 106.761719 214.117188 L 227.277344 142.074219 C 228.996094 141.023438 229.492188 138.75 228.386719 137.089844 C 225.339844 132.65625 221.910156 128.554688 218.199219 124.953125 Z M 120.269531 184.027344 C 110.082031 166.957031 119.9375 145.679688 140.417969 133.484375 C 160.902344 121.238281 184.265625 122.625 194.449219 139.691406 Z M 120.269531 184.027344 " fill-opacity="1" fill-rule="nonzero"/><path fill="#281c22" d="M 138.039062 128.445312 C 138.207031 128.777344 137.707031 129.054688 137.542969 128.71875 C 134.828125 124.011719 132.0625 119.355469 129.238281 114.699219 C 129.402344 114.589844 129.570312 114.476562 129.734375 114.421875 C 132.558594 119.078125 135.328125 123.789062 138.039062 128.445312 Z M 116.007812 124.839844 C 115.839844 124.953125 115.730469 125.117188 115.617188 125.230469 C 118.277344 128.609375 120.933594 131.988281 123.644531 135.316406 C 123.867188 135.59375 124.253906 135.203125 124.035156 134.871094 C 121.375 131.601562 118.664062 128.222656 116.007812 124.839844 Z M 112.40625 146.621094 C 109.640625 144.347656 106.816406 142.132812 103.992188 139.859375 C 103.882812 140.027344 103.773438 140.191406 103.714844 140.359375 C 106.484375 142.574219 109.253906 144.792969 112.019531 147.007812 C 112.296875 147.285156 112.683594 146.898438 112.40625 146.621094 Z M 105.597656 161.859375 C 102.386719 160.75 99.234375 159.644531 96.023438 158.535156 C 95.964844 158.699219 95.910156 158.921875 95.855469 159.089844 C 99.066406 160.195312 102.222656 161.304688 105.433594 162.414062 C 105.765625 162.523438 105.929688 161.96875 105.597656 161.859375 Z M 102.386719 177.097656 C 99.398438 177.042969 96.410156 176.933594 93.363281 176.878906 C 93.363281 177.042969 93.363281 177.265625 93.363281 177.429688 C 96.355469 177.488281 99.398438 177.597656 102.386719 177.652344 C 102.71875 177.707031 102.71875 177.15625 102.386719 177.097656 Z M 105.875 194.554688 C 102.5 195.441406 99.175781 196.21875 95.800781 196.992188 C 95.855469 197.160156 95.910156 197.382812 95.964844 197.546875 C 99.34375 196.828125 102.71875 195.996094 106.097656 195.109375 C 106.429688 195 106.261719 194.445312 105.875 194.554688 Z M 145.015625 107.664062 C 146.785156 111.707031 148.503906 115.753906 150.21875 119.796875 C 150.382812 120.132812 150.9375 119.964844 150.773438 119.632812 C 149.054688 115.585938 147.339844 111.542969 145.566406 107.496094 C 145.402344 107.550781 145.234375 107.605469 145.015625 107.664062 Z M 164.058594 104.394531 C 164.722656 107.9375 165.386719 111.542969 166.050781 115.089844 C 166.105469 115.476562 166.660156 115.308594 166.605469 114.921875 C 165.941406 111.375 165.277344 107.882812 164.667969 104.335938 C 164.445312 104.335938 164.222656 104.394531 164.058594 104.394531 Z M 184.210938 106.386719 C 183.65625 109.710938 183.15625 112.980469 182.605469 116.308594 C 182.546875 116.640625 183.101562 116.804688 183.15625 116.472656 C 183.710938 113.148438 184.210938 109.878906 184.761719 106.554688 C 184.597656 106.441406 184.429688 106.386719 184.210938 106.386719 Z M 201.535156 112.925781 C 200.207031 115.53125 198.878906 118.136719 197.605469 120.683594 C 197.441406 121.019531 197.9375 121.292969 198.105469 120.960938 C 199.433594 118.359375 200.761719 115.753906 202.035156 113.148438 C 201.867188 113.09375 201.703125 112.980469 201.535156 112.925781 Z M 217.757812 124.5625 C 215.542969 126.945312 213.273438 129.273438 211.003906 131.714844 C 210.78125 131.988281 211.167969 132.378906 211.445312 132.101562 C 213.660156 129.71875 215.984375 127.390625 218.199219 124.953125 C 218.035156 124.839844 217.921875 124.675781 217.757812 124.5625 Z M 217.757812 124.5625 " fill-opacity="1" fill-rule="nonzero"/><g clip-path="url(#9c8a324099)"><path fill="#e87b69" d="M 311.921875 128.222656 L 287.289062 268.480469 C 286.511719 273.023438 282.140625 276.074219 277.65625 275.242188 L 175.296875 257.230469 C 170.757812 256.457031 167.710938 252.078125 168.542969 247.589844 L 193.175781 107.328125 C 193.953125 102.785156 198.324219 99.738281 202.808594 100.570312 L 305.167969 118.578125 C 309.710938 119.355469 312.699219 123.675781 311.921875 128.222656 Z M 311.921875 128.222656 " fill-opacity="1" fill-rule="nonzero"/></g><path fill="#d15081" d="M 266.308594 216.554688 L 281.972656 219.328125 C 283.300781 219.546875 284.1875 220.824219 283.96875 222.152344 L 277.601562 258.0625 C 277.378906 259.390625 276.105469 260.277344 274.777344 260.058594 L 259.109375 257.285156 C 257.78125 257.066406 256.894531 255.789062 257.117188 254.460938 L 263.429688 218.550781 C 263.707031 217.21875 264.980469 216.332031 266.308594 216.554688 Z M 266.308594 216.554688 " fill-opacity="1" fill-rule="nonzero"/><path fill="#f2da66" d="M 197.773438 155.429688 L 212.773438 158.089844 C 214.269531 158.367188 215.265625 159.808594 215.042969 161.304688 L 212.886719 173.664062 C 212.609375 175.160156 211.167969 176.15625 209.675781 175.933594 L 194.671875 173.273438 C 193.175781 173 192.179688 171.558594 192.402344 170.0625 L 194.5625 157.703125 C 194.839844 156.207031 196.277344 155.210938 197.773438 155.429688 Z M 220.582031 162.082031 L 218.3125 174.882812 C 218.089844 176.269531 218.976562 177.597656 220.359375 177.820312 L 235.804688 180.535156 C 237.1875 180.757812 238.515625 179.871094 238.738281 178.484375 L 241.007812 165.683594 C 241.230469 164.296875 240.34375 162.96875 238.960938 162.746094 L 223.515625 160.03125 C 222.128906 159.753906 220.800781 160.695312 220.582031 162.082031 Z M 246.15625 167.179688 L 244.109375 178.761719 C 243.832031 180.480469 244.9375 182.140625 246.65625 182.417969 L 260.882812 184.914062 C 262.597656 185.191406 264.257812 184.082031 264.535156 182.363281 L 266.585938 170.78125 C 266.859375 169.0625 265.753906 167.402344 264.039062 167.125 L 249.808594 164.628906 C 248.09375 164.296875 246.433594 165.460938 246.15625 167.179688 Z M 271.675781 171.722656 L 269.628906 183.304688 C 269.351562 185.023438 270.460938 186.6875 272.230469 186.964844 L 286.457031 189.457031 C 288.175781 189.734375 289.835938 188.625 290.113281 186.851562 L 292.160156 175.269531 C 292.4375 173.550781 291.328125 171.890625 289.558594 171.613281 L 275.332031 169.117188 C 273.613281 168.84375 272.007812 169.949219 271.675781 171.722656 Z M 190.242188 182.308594 L 188.027344 194.777344 C 187.753906 196.273438 188.75 197.660156 190.242188 197.9375 L 205.410156 200.59375 C 206.90625 200.871094 208.289062 199.875 208.566406 198.378906 L 210.78125 185.910156 C 211.058594 184.414062 210.0625 183.027344 208.566406 182.75 L 193.398438 180.089844 C 191.902344 179.8125 190.519531 180.8125 190.242188 182.308594 Z M 216.207031 187.019531 L 214.046875 199.210938 C 213.769531 200.761719 214.824219 202.257812 216.375 202.535156 L 231.210938 205.140625 C 232.757812 205.417969 234.253906 204.363281 234.53125 202.8125 L 236.691406 190.621094 C 236.964844 189.070312 235.914062 187.574219 234.363281 187.296875 L 219.527344 184.691406 C 217.921875 184.414062 216.429688 185.46875 216.207031 187.019531 Z M 241.949219 190.953125 L 239.625 204.308594 C 239.402344 205.527344 240.234375 206.746094 241.449219 206.96875 L 257.449219 209.792969 C 258.667969 210.015625 259.886719 209.183594 260.105469 207.964844 L 262.433594 194.609375 C 262.652344 193.390625 261.824219 192.171875 260.605469 191.949219 L 244.605469 189.125 C 243.386719 188.902344 242.171875 189.734375 241.949219 190.953125 Z M 267.46875 195.609375 L 265.199219 208.632812 C 264.980469 209.960938 265.863281 211.234375 267.191406 211.457031 L 282.859375 214.226562 C 284.1875 214.449219 285.460938 213.5625 285.683594 212.234375 L 287.953125 199.210938 C 288.175781 197.878906 287.289062 196.605469 285.960938 196.382812 L 270.292969 193.613281 C 268.964844 193.390625 267.691406 194.277344 267.46875 195.609375 Z M 186.148438 205.472656 L 184.042969 217.386719 C 183.765625 218.992188 184.875 220.601562 186.480469 220.878906 L 201.039062 223.425781 C 202.644531 223.703125 204.25 222.597656 204.527344 220.988281 L 206.628906 209.074219 C 206.90625 207.46875 205.800781 205.859375 204.195312 205.582031 L 189.632812 203.035156 C 188.027344 202.757812 186.421875 203.863281 186.148438 205.472656 Z M 212.222656 209.40625 L 209.894531 222.597656 C 209.675781 223.871094 210.503906 225.089844 211.777344 225.3125 L 227.609375 228.082031 C 228.882812 228.304688 230.101562 227.472656 230.324219 226.199219 L 232.648438 213.007812 C 232.871094 211.734375 232.039062 210.515625 230.765625 210.292969 L 214.933594 207.523438 C 213.660156 207.300781 212.441406 208.132812 212.222656 209.40625 Z M 237.90625 214.171875 L 235.695312 226.917969 C 235.472656 228.304688 236.359375 229.632812 237.796875 229.910156 L 253.1875 232.625 C 254.570312 232.847656 255.898438 231.960938 256.175781 230.519531 L 258.390625 217.773438 C 258.613281 216.390625 257.726562 215.058594 256.289062 214.78125 L 240.898438 212.066406 C 239.457031 211.84375 238.128906 212.789062 237.90625 214.171875 Z M 182.214844 227.804688 L 179.890625 240.882812 C 179.667969 242.214844 180.554688 243.433594 181.828125 243.652344 L 197.550781 246.425781 C 198.878906 246.648438 200.097656 245.761719 200.320312 244.484375 L 202.644531 231.40625 C 202.867188 230.078125 201.980469 228.859375 200.707031 228.636719 L 184.984375 225.867188 C 183.710938 225.589844 182.492188 226.476562 182.214844 227.804688 Z M 208.234375 232.40625 L 205.964844 245.484375 C 205.742188 246.8125 206.628906 248.03125 207.902344 248.253906 L 223.625 251.023438 C 224.953125 251.246094 226.171875 250.359375 226.394531 249.085938 L 228.664062 236.007812 C 228.882812 234.675781 228 233.457031 226.726562 233.234375 L 211.003906 230.464844 C 209.675781 230.1875 208.457031 231.074219 208.234375 232.40625 Z M 233.867188 237.003906 L 231.597656 249.917969 C 231.375 251.300781 232.261719 252.574219 233.644531 252.796875 L 249.203125 255.511719 C 250.585938 255.734375 251.859375 254.847656 252.078125 253.460938 L 254.351562 240.550781 C 254.570312 239.164062 253.683594 237.890625 252.300781 237.667969 L 236.746094 234.953125 C 235.417969 234.730469 234.144531 235.617188 233.867188 237.003906 Z M 233.867188 237.003906 " fill-opacity="1" fill-rule="nonzero"/><path fill="#281c22" d="M 282.25 270.53125 C 282.582031 270.585938 282.472656 271.140625 282.085938 271.085938 C 274.167969 269.753906 266.25 268.425781 258.390625 267.152344 C 230.488281 262.496094 202.589844 257.839844 174.742188 253.1875 C 174.410156 253.128906 174.519531 252.574219 174.910156 252.632812 C 182.824219 253.960938 190.742188 255.292969 198.601562 256.566406 C 226.449219 261.222656 254.351562 265.875 282.25 270.53125 Z M 276.605469 257.007812 C 270.625 255.679688 264.648438 254.570312 258.613281 253.683594 C 258.28125 253.628906 258.113281 254.183594 258.445312 254.238281 C 264.480469 255.125 270.515625 256.234375 276.4375 257.5625 C 276.824219 257.617188 276.9375 257.121094 276.605469 257.007812 Z M 250.417969 252.632812 C 244.9375 252.023438 239.570312 251.136719 234.144531 250.082031 C 233.8125 250.027344 233.644531 250.527344 233.976562 250.636719 C 239.402344 251.746094 244.882812 252.632812 250.363281 253.242188 C 250.75 253.1875 250.75 252.632812 250.417969 252.632812 Z M 224.789062 248.308594 C 219.25 247.367188 213.714844 246.425781 208.179688 245.425781 C 207.847656 245.371094 207.679688 245.925781 208.015625 245.980469 C 213.550781 246.921875 219.085938 247.867188 224.621094 248.863281 C 224.953125 248.863281 225.121094 248.363281 224.789062 248.308594 Z M 198.988281 243.542969 C 193.234375 242.492188 187.476562 241.492188 181.664062 240.496094 C 181.332031 240.441406 181.164062 240.996094 181.496094 241.050781 C 187.253906 242.046875 193.066406 243.042969 198.824219 244.097656 C 199.210938 244.152344 199.324219 243.652344 198.988281 243.542969 Z M 202.921875 220.046875 C 197.441406 219.492188 192.015625 218.714844 186.589844 217.773438 C 186.257812 217.71875 186.089844 218.273438 186.421875 218.328125 C 191.902344 219.269531 197.382812 220.046875 202.867188 220.65625 C 203.253906 220.601562 203.253906 220.046875 202.921875 220.046875 Z M 227.941406 224.589844 C 223.070312 224.148438 218.199219 223.59375 213.328125 222.929688 C 212.996094 222.871094 212.828125 223.425781 213.164062 223.484375 C 218.089844 224.148438 222.960938 224.703125 227.886719 225.199219 C 228.332031 225.199219 228.332031 224.644531 227.941406 224.589844 Z M 253.628906 229.078125 C 248.316406 228.46875 243.054688 227.914062 237.742188 227.304688 C 237.410156 227.25 237.410156 227.804688 237.742188 227.859375 C 243.054688 228.46875 248.316406 229.023438 253.628906 229.632812 C 253.960938 229.632812 253.960938 229.078125 253.628906 229.078125 Z M 282.636719 211.402344 C 277.65625 210.625 272.730469 209.90625 267.746094 209.128906 C 267.414062 209.074219 267.25 209.628906 267.582031 209.683594 C 272.5625 210.460938 277.488281 211.179688 282.472656 211.957031 C 282.859375 212.011719 283.027344 211.457031 282.636719 211.402344 Z M 257.449219 206.859375 C 252.6875 206.191406 247.929688 205.363281 243.222656 204.417969 C 242.890625 204.363281 242.722656 204.863281 243.054688 204.972656 C 247.761719 205.914062 252.523438 206.746094 257.285156 207.410156 C 257.671875 207.410156 257.78125 206.914062 257.449219 206.859375 Z M 231.542969 202.09375 C 226.613281 201.039062 221.632812 200.320312 216.59375 199.765625 C 216.261719 199.707031 216.261719 200.261719 216.59375 200.320312 C 221.578125 200.816406 226.503906 201.59375 231.375 202.589844 C 231.707031 202.703125 231.875 202.148438 231.542969 202.09375 Z M 206.351562 198.15625 C 203.863281 197.492188 201.371094 196.9375 198.824219 196.605469 C 196.5 196.273438 193.953125 196.382812 191.683594 195.664062 C 191.351562 195.550781 191.183594 196.105469 191.515625 196.21875 C 193.785156 196.9375 196.332031 196.828125 198.65625 197.160156 C 201.203125 197.546875 203.695312 198.046875 206.1875 198.710938 C 206.574219 198.820312 206.742188 198.269531 206.351562 198.15625 Z M 210.890625 172.832031 C 205.910156 172.445312 200.984375 171.777344 196.054688 170.949219 C 195.722656 170.890625 195.558594 171.445312 195.890625 171.503906 C 200.871094 172.332031 205.855469 173 210.890625 173.386719 C 211.226562 173.386719 211.226562 172.832031 210.890625 172.832031 Z M 236.578125 177.320312 C 231.707031 176.820312 226.890625 176.324219 222.019531 175.824219 C 221.6875 175.769531 221.6875 176.324219 222.019531 176.378906 C 226.890625 176.878906 231.707031 177.375 236.578125 177.875 C 236.910156 177.929688 236.910156 177.375 236.578125 177.320312 Z M 262.375 181.53125 C 257.394531 180.757812 252.410156 180.148438 247.375 179.648438 C 247.042969 179.59375 247.042969 180.148438 247.375 180.203125 C 252.355469 180.699219 257.285156 181.3125 262.210938 182.085938 C 262.542969 182.140625 262.707031 181.585938 262.375 181.53125 Z M 287.621094 185.6875 C 283.136719 184.914062 278.652344 184.246094 274.113281 183.75 C 273.78125 183.695312 273.78125 184.246094 274.113281 184.304688 C 278.597656 184.800781 283.027344 185.410156 287.453125 186.1875 C 287.84375 186.242188 288.007812 185.742188 287.621094 185.6875 Z M 287.621094 185.6875 " fill-opacity="1" fill-rule="nonzero"/><g clip-path="url(#9abb3965f3)"><path fill="#281c22" d="M 311.921875 128.222656 L 305.058594 167.347656 L 186.257812 146.398438 L 193.121094 107.273438 C 193.898438 102.730469 198.269531 99.683594 202.753906 100.511719 L 305.113281 118.523438 C 309.710938 119.355469 312.699219 123.675781 311.921875 128.222656 Z M 311.921875 128.222656 " fill-opacity="1" fill-rule="nonzero"/></g><path fill="#a7ddea" d="M 294.265625 154.542969 L 200.761719 138.085938 C 199.597656 137.863281 198.824219 136.757812 199.046875 135.648438 L 202.476562 116.03125 C 202.699219 114.867188 203.804688 114.089844 204.914062 114.3125 L 298.414062 130.769531 C 299.578125 130.992188 300.351562 132.101562 300.132812 133.210938 L 296.699219 152.828125 C 296.535156 153.992188 295.425781 154.765625 294.265625 154.542969 Z M 294.265625 154.542969 " fill-opacity="1" fill-rule="nonzero"/><g clip-path="url(#ef99235d9f)"><path fill="#a7ddea" d="M 128.519531 290.867188 C 130.621094 294.027344 129.789062 298.292969 126.691406 300.402344 C 123.535156 302.507812 119.273438 301.675781 117.167969 298.570312 C 115.066406 295.414062 115.894531 291.144531 118.996094 289.039062 C 122.152344 286.878906 126.414062 287.710938 128.519531 290.867188 Z M 125.640625 305.445312 L 122.261719 306.664062 C 122.207031 306.664062 122.152344 306.773438 122.207031 306.828125 L 130.457031 320.128906 C 130.511719 320.238281 130.730469 320.183594 130.675781 320.019531 L 125.804688 305.5 C 125.75 305.445312 125.695312 305.445312 125.640625 305.445312 Z M 125.640625 305.445312 " fill-opacity="1" fill-rule="nonzero"/></g><path fill="#281c22" d="M 90.707031 253.296875 L 137.265625 221.875 C 137.929688 221.433594 138.648438 221.433594 138.980469 221.875 C 139.257812 222.320312 138.980469 223.039062 138.371094 223.425781 L 91.8125 254.847656 C 91.148438 255.292969 90.429688 255.292969 90.097656 254.847656 C 89.765625 254.460938 90.042969 253.738281 90.707031 253.296875 Z M 171.308594 273.300781 C 174.851562 276.40625 178.453125 279.507812 181.996094 282.613281 C 183.324219 283.777344 185.316406 281.835938 183.933594 280.671875 C 180.390625 277.570312 176.792969 274.464844 173.246094 271.363281 C 171.976562 270.199219 169.980469 272.136719 171.308594 273.300781 Z M 171.308594 273.300781 " fill-opacity="1" fill-rule="nonzero"/><path fill="#d15081" d="M 96.023438 198.65625 L 174.410156 266.542969 C 175.851562 267.761719 176.238281 269.8125 175.40625 271.472656 L 173.800781 274.742188 C 173.304688 275.683594 172.085938 275.960938 171.253906 275.242188 L 93.476562 207.191406 Z M 84.175781 206.800781 L 117.667969 305 C 118.277344 306.773438 119.992188 307.882812 121.875 307.769531 L 125.472656 307.492188 C 126.523438 307.382812 127.246094 306.328125 126.855469 305.332031 L 93.085938 207.6875 Z M 84.175781 206.800781 " fill-opacity="1" fill-rule="nonzero"/><path fill="#281c22" d="M 97.238281 213.839844 C 88.992188 219.601562 73.988281 199.652344 68.730469 192.117188 C 67.675781 190.621094 68.121094 188.515625 69.726562 187.351562 L 73.378906 184.800781 L 62.804688 170.339844 C 62.03125 169.285156 62.085938 167.789062 62.917969 166.792969 C 63.914062 165.628906 65.40625 164.242188 67.402344 163.578125 C 68.675781 163.132812 70.113281 163.6875 70.777344 164.851562 L 79.910156 180.257812 L 83.789062 177.542969 C 85.449219 176.378906 87.71875 176.765625 88.714844 178.429688 C 93.53125 186.464844 105.378906 208.132812 97.238281 213.839844 Z M 97.238281 213.839844 " fill-opacity="1" fill-rule="nonzero"/><path fill="#a7ddea" d="M 169.152344 263.4375 C 171.253906 266.597656 170.425781 270.863281 167.324219 272.96875 C 164.167969 275.074219 159.90625 274.242188 157.804688 271.140625 C 155.699219 268.039062 156.53125 263.714844 159.628906 261.609375 C 162.730469 259.503906 167.046875 260.335938 169.152344 263.4375 Z M 169.152344 263.4375 " fill-opacity="1" fill-rule="nonzero"/><path fill="#a7ddea" d="M 89.542969 192.835938 C 91.039062 195 90.429688 197.992188 88.269531 199.433594 C 86.113281 200.871094 83.121094 200.320312 81.683594 198.15625 C 80.1875 195.996094 80.796875 193.003906 82.957031 191.5625 C 85.117188 190.121094 88.050781 190.675781 89.542969 192.835938 Z M 79.523438 180.3125 C 79.191406 180.535156 78.859375 180.757812 78.527344 180.976562 C 78.527344 180.921875 78.527344 180.921875 78.472656 180.867188 C 75.703125 176.15625 72.824219 171.503906 69.890625 166.902344 C 69.726562 166.625 69.226562 166.902344 69.394531 167.179688 C 72.382812 171.777344 75.261719 176.433594 77.972656 181.144531 C 77.972656 181.199219 78.03125 181.199219 78.085938 181.253906 C 77.640625 181.53125 77.199219 181.808594 76.757812 182.085938 C 73.601562 177.429688 70.390625 172.777344 67.070312 168.230469 C 66.847656 167.957031 66.402344 168.230469 66.570312 168.507812 C 69.890625 173.109375 73.101562 177.707031 76.257812 182.417969 C 75.871094 182.695312 75.484375 182.972656 75.039062 183.25 C 71.773438 178.871094 68.507812 174.4375 65.296875 170.0625 C 65.074219 169.785156 64.632812 170.0625 64.800781 170.339844 C 68.066406 174.773438 71.332031 179.148438 74.597656 183.582031 C 74.320312 183.804688 73.988281 184.027344 73.65625 184.246094 C 73.378906 184.46875 73.65625 184.914062 73.933594 184.746094 C 75.816406 183.359375 77.699219 182.085938 79.691406 180.867188 C 80.132812 180.589844 79.855469 180.148438 79.523438 180.3125 Z M 79.523438 180.3125 " fill-opacity="1" fill-rule="nonzero"/><path fill="#281c22" d="M 83.566406 190.066406 C 83.511719 189.734375 84.0625 189.734375 84.121094 190.066406 C 84.671875 194.332031 85.335938 198.546875 86.113281 202.757812 C 86.167969 203.089844 85.667969 203.253906 85.558594 202.921875 C 84.785156 198.65625 84.121094 194.332031 83.566406 190.066406 Z M 85.503906 190.566406 C 86.058594 194.332031 86.609375 198.101562 87.21875 201.925781 C 87.273438 202.257812 87.828125 202.148438 87.773438 201.757812 C 87.21875 197.992188 86.664062 194.222656 86.058594 190.398438 C 86 190.066406 85.449219 190.234375 85.503906 190.566406 Z M 85.503906 190.566406 " fill-opacity="1" fill-rule="nonzero"/><path fill="#a7ddea" d="M 108.367188 227.027344 L 122.59375 249.640625 L 119.992188 251.414062 L 104.601562 229.578125 Z M 108.367188 227.027344 " fill-opacity="1" fill-rule="nonzero"/><path fill="#281c22" d="M 163.117188 265.15625 C 163.449219 265.042969 163.617188 265.597656 163.285156 265.710938 C 161.679688 266.152344 161.953125 268.648438 163.617188 268.757812 C 165.71875 268.925781 165.386719 265.210938 163.285156 265.710938 C 162.894531 265.765625 162.730469 265.210938 163.117188 265.15625 C 164.222656 264.878906 165.441406 265.765625 165.609375 266.875 C 165.773438 267.925781 165.109375 269.089844 164.058594 269.257812 C 162.949219 269.476562 161.898438 268.480469 161.679688 267.484375 C 161.402344 266.429688 162.066406 265.433594 163.117188 265.15625 Z M 157.527344 263.328125 C 155.476562 265.929688 156.585938 270.640625 158.855469 272.746094 C 161.347656 275.019531 165.554688 274.964844 168.042969 272.691406 C 168.320312 272.46875 167.933594 272.082031 167.65625 272.304688 C 165.386719 274.355469 161.457031 274.410156 159.242188 272.359375 C 157.195312 270.53125 156.03125 266.097656 157.914062 263.714844 C 158.136719 263.4375 157.746094 263.050781 157.527344 263.328125 Z M 157.527344 263.328125 " fill-opacity="1" fill-rule="nonzero"/></svg>